<svg width="480" height="270" viewBox="0 0 480 270" xmlns="http://www.w3.org/2000/svg">
<rect width="480" height="270" fill="#0B0F16"/>
<line x1="0" y1="0" x2="0" y2="270" stroke="rgba(255,255,255,0.045)" stroke-width="1"/>
<line x1="24" y1="0" x2="24" y2="270" stroke="rgba(255,255,255,0.045)" stroke-width="1"/>
<line x1="48" y1="0" x2="48" y2="270" stroke="rgba(255,255,255,0.045)" stroke-width="1"/>
<line x1="72" y1="0" x2="72" y2="270" stroke="rgba(255,255,255,0.045)" stroke-width="1"/>
<line x1="96" y1="0" x2="96" y2="270" stroke="rgba(255,255,255,0.045)" stroke-width="1"/>
<line x1="120" y1="0" x2="120" y2="270" stroke="rgba(255,255,255,0.045)" stroke-width="1"/>
<line x1="144" y1="0" x2="144" y2="270" stroke="rgba(255,255,255,0.045)" stroke-width="1"/>
<line x1="168" y1="0" x2="168" y2="270" stroke="rgba(255,255,255,0.045)" stroke-width="1"/>
<line x1="192" y1="0" x2="192" y2="270" stroke="rgba(255,255,255,0.045)" stroke-width="1"/>
<line x1="216" y1="0" x2="216" y2="270" stroke="rgba(255,255,255,0.045)" stroke-width="1"/>
<line x1="240" y1="0" x2="240" y2="270" stroke="rgba(255,255,255,0.045)" stroke-width="1"/>
<line x1="264" y1="0" x2="264" y2="270" stroke="rgba(255,255,255,0.045)" stroke-width="1"/>
<line x1="288" y1="0" x2="288" y2="270" stroke="rgba(255,255,255,0.045)" stroke-width="1"/>
<line x1="312" y1="0" x2="312" y2="270" stroke="rgba(255,255,255,0.045)" stroke-width="1"/>
<line x1="336" y1="0" x2="336" y2="270" stroke="rgba(255,255,255,0.045)" stroke-width="1"/>
<line x1="360" y1="0" x2="360" y2="270" stroke="rgba(255,255,255,0.045)" stroke-width="1"/>
<line x1="384" y1="0" x2="384" y2="270" stroke="rgba(255,255,255,0.045)" stroke-width="1"/>
<line x1="408" y1="0" x2="408" y2="270" stroke="rgba(255,255,255,0.045)" stroke-width="1"/>
<line x1="432" y1="0" x2="432" y2="270" stroke="rgba(255,255,255,0.045)" stroke-width="1"/>
<line x1="456" y1="0" x2="456" y2="270" stroke="rgba(255,255,255,0.045)" stroke-width="1"/>
<line x1="480" y1="0" x2="480" y2="270" stroke="rgba(255,255,255,0.045)" stroke-width="1"/>
<line x1="0" y1="0" x2="480" y2="0" stroke="rgba(255,255,255,0.045)" stroke-width="1"/>
<line x1="0" y1="24" x2="480" y2="24" stroke="rgba(255,255,255,0.045)" stroke-width="1"/>
<line x1="0" y1="48" x2="480" y2="48" stroke="rgba(255,255,255,0.045)" stroke-width="1"/>
<line x1="0" y1="72" x2="480" y2="72" stroke="rgba(255,255,255,0.045)" stroke-width="1"/>
<line x1="0" y1="96" x2="480" y2="96" stroke="rgba(255,255,255,0.045)" stroke-width="1"/>
<line x1="0" y1="120" x2="480" y2="120" stroke="rgba(255,255,255,0.045)" stroke-width="1"/>
<line x1="0" y1="144" x2="480" y2="144" stroke="rgba(255,255,255,0.045)" stroke-width="1"/>
<line x1="0" y1="168" x2="480" y2="168" stroke="rgba(255,255,255,0.045)" stroke-width="1"/>
<line x1="0" y1="192" x2="480" y2="192" stroke="rgba(255,255,255,0.045)" stroke-width="1"/>
<line x1="0" y1="216" x2="480" y2="216" stroke="rgba(255,255,255,0.045)" stroke-width="1"/>
<line x1="0" y1="240" x2="480" y2="240" stroke="rgba(255,255,255,0.045)" stroke-width="1"/>
<line x1="0" y1="264" x2="480" y2="264" stroke="rgba(255,255,255,0.045)" stroke-width="1"/>
<g transform="translate(240.00,135.00)">
<rect x="-28.0" y="-13.0" width="56" height="26" rx="5" fill="#0B0F16" stroke="#FFB000" stroke-width="1.3"/>
<text x="0" y="3.2" text-anchor="middle" font-family="monospace" font-size="8" fill="#FFB000" opacity="0.9">FABRIC</text>
<line x1="0" y1="0" x2="0.0" y2="-60.5" stroke="#FFB000" stroke-width="1" opacity="0.4"/>
<rect x="-19.0" y="-72.5" width="38" height="24" rx="5" fill="none" stroke="#FFB000" stroke-width="0.6" opacity="0.35" stroke-dasharray="2 2"/>
<rect x="-16.0" y="-67.5" width="14" height="14" rx="4" fill="#0B0F16" stroke="#FFB000" stroke-width="1.2"/>
<rect x="-12.1" y="-63.6" width="6.2" height="6.2" rx="2" fill="#FFB000" opacity="0.16"/>
<rect x="-12.1" y="-63.6" width="6.2" height="6.2" rx="2" fill="none" stroke="#FFB000" stroke-width="0.6" opacity="0.6"/>
<line x1="-12.5" y1="-71.5" x2="-12.5" y2="-67.5" stroke="#FFB000" stroke-width="1" opacity="0.7"/>
<line x1="-12.5" y1="-53.5" x2="-12.5" y2="-49.5" stroke="#FFB000" stroke-width="1" opacity="0.7"/>
<line x1="-5.5" y1="-71.5" x2="-5.5" y2="-67.5" stroke="#FFB000" stroke-width="1" opacity="0.7"/>
<line x1="-5.5" y1="-53.5" x2="-5.5" y2="-49.5" stroke="#FFB000" stroke-width="1" opacity="0.7"/>
<line x1="-20.0" y1="-64.0" x2="-16.0" y2="-64.0" stroke="#FFB000" stroke-width="1" opacity="0.7"/>
<line x1="-2.0" y1="-64.0" x2="2.0" y2="-64.0" stroke="#FFB000" stroke-width="1" opacity="0.7"/>
<line x1="-20.0" y1="-57.0" x2="-16.0" y2="-57.0" stroke="#FFB000" stroke-width="1" opacity="0.7"/>
<line x1="-2.0" y1="-57.0" x2="2.0" y2="-57.0" stroke="#FFB000" stroke-width="1" opacity="0.7"/>
<rect x="2.0" y="-67.5" width="14" height="14" rx="4" fill="#0B0F16" stroke="#FFB000" stroke-width="1.2"/>
<rect x="5.9" y="-63.6" width="6.2" height="6.2" rx="2" fill="#FFB000" opacity="0.16"/>
<rect x="5.9" y="-63.6" width="6.2" height="6.2" rx="2" fill="none" stroke="#FFB000" stroke-width="0.6" opacity="0.6"/>
<line x1="5.5" y1="-71.5" x2="5.5" y2="-67.5" stroke="#FFB000" stroke-width="1" opacity="0.7"/>
<line x1="5.5" y1="-53.5" x2="5.5" y2="-49.5" stroke="#FFB000" stroke-width="1" opacity="0.7"/>
<line x1="12.5" y1="-71.5" x2="12.5" y2="-67.5" stroke="#FFB000" stroke-width="1" opacity="0.7"/>
<line x1="12.5" y1="-53.5" x2="12.5" y2="-49.5" stroke="#FFB000" stroke-width="1" opacity="0.7"/>
<line x1="-2.0" y1="-64.0" x2="2.0" y2="-64.0" stroke="#FFB000" stroke-width="1" opacity="0.7"/>
<line x1="16.0" y1="-64.0" x2="20.0" y2="-64.0" stroke="#FFB000" stroke-width="1" opacity="0.7"/>
<line x1="-2.0" y1="-57.0" x2="2.0" y2="-57.0" stroke="#FFB000" stroke-width="1" opacity="0.7"/>
<line x1="16.0" y1="-57.0" x2="20.0" y2="-57.0" stroke="#FFB000" stroke-width="1" opacity="0.7"/>
<line x1="0" y1="0" x2="95.3" y2="-30.3" stroke="#FFB000" stroke-width="1" opacity="0.4"/>
<rect x="76.3" y="-42.2" width="38" height="24" rx="5" fill="none" stroke="#FFB000" stroke-width="0.6" opacity="0.35" stroke-dasharray="2 2"/>
<rect x="79.3" y="-37.2" width="14" height="14" rx="4" fill="#0B0F16" stroke="#FFB000" stroke-width="1.2"/>
<rect x="83.2" y="-33.3" width="6.2" height="6.2" rx="2" fill="#FFB000" opacity="0.16"/>
<rect x="83.2" y="-33.3" width="6.2" height="6.2" rx="2" fill="none" stroke="#FFB000" stroke-width="0.6" opacity="0.6"/>
<line x1="82.8" y1="-41.2" x2="82.8" y2="-37.2" stroke="#FFB000" stroke-width="1" opacity="0.7"/>
<line x1="82.8" y1="-23.3" x2="82.8" y2="-19.3" stroke="#FFB000" stroke-width="1" opacity="0.7"/>
<line x1="89.8" y1="-41.2" x2="89.8" y2="-37.2" stroke="#FFB000" stroke-width="1" opacity="0.7"/>
<line x1="89.8" y1="-23.3" x2="89.8" y2="-19.3" stroke="#FFB000" stroke-width="1" opacity="0.7"/>
<line x1="75.3" y1="-33.8" x2="79.3" y2="-33.8" stroke="#FFB000" stroke-width="1" opacity="0.7"/>
<line x1="93.3" y1="-33.8" x2="97.3" y2="-33.8" stroke="#FFB000" stroke-width="1" opacity="0.7"/>
<line x1="75.3" y1="-26.8" x2="79.3" y2="-26.8" stroke="#FFB000" stroke-width="1" opacity="0.7"/>
<line x1="93.3" y1="-26.8" x2="97.3" y2="-26.8" stroke="#FFB000" stroke-width="1" opacity="0.7"/>
<rect x="97.3" y="-37.2" width="14" height="14" rx="4" fill="#0B0F16" stroke="#FFB000" stroke-width="1.2"/>
<rect x="101.2" y="-33.3" width="6.2" height="6.2" rx="2" fill="#FFB000" opacity="0.16"/>
<rect x="101.2" y="-33.3" width="6.2" height="6.2" rx="2" fill="none" stroke="#FFB000" stroke-width="0.6" opacity="0.6"/>
<line x1="100.8" y1="-41.2" x2="100.8" y2="-37.2" stroke="#FFB000" stroke-width="1" opacity="0.7"/>
<line x1="100.8" y1="-23.3" x2="100.8" y2="-19.3" stroke="#FFB000" stroke-width="1" opacity="0.7"/>
<line x1="107.8" y1="-41.2" x2="107.8" y2="-37.2" stroke="#FFB000" stroke-width="1" opacity="0.7"/>
<line x1="107.8" y1="-23.3" x2="107.8" y2="-19.3" stroke="#FFB000" stroke-width="1" opacity="0.7"/>
<line x1="93.3" y1="-33.8" x2="97.3" y2="-33.8" stroke="#FFB000" stroke-width="1" opacity="0.7"/>
<line x1="111.3" y1="-33.8" x2="115.3" y2="-33.8" stroke="#FFB000" stroke-width="1" opacity="0.7"/>
<line x1="93.3" y1="-26.8" x2="97.3" y2="-26.8" stroke="#FFB000" stroke-width="1" opacity="0.7"/>
<line x1="111.3" y1="-26.8" x2="115.3" y2="-26.8" stroke="#FFB000" stroke-width="1" opacity="0.7"/>
<line x1="0" y1="0" x2="95.3" y2="30.2" stroke="#FFB000" stroke-width="1" opacity="0.4"/>
<rect x="76.3" y="18.2" width="38" height="24" rx="5" fill="none" stroke="#FFB000" stroke-width="0.6" opacity="0.35" stroke-dasharray="2 2"/>
<rect x="79.3" y="23.2" width="14" height="14" rx="4" fill="#0B0F16" stroke="#FFB000" stroke-width="1.2"/>
<rect x="83.2" y="27.2" width="6.2" height="6.2" rx="2" fill="#FFB000" opacity="0.16"/>
<rect x="83.2" y="27.2" width="6.2" height="6.2" rx="2" fill="none" stroke="#FFB000" stroke-width="0.6" opacity="0.6"/>
<line x1="82.8" y1="19.2" x2="82.8" y2="23.2" stroke="#FFB000" stroke-width="1" opacity="0.7"/>
<line x1="82.8" y1="37.2" x2="82.8" y2="41.2" stroke="#FFB000" stroke-width="1" opacity="0.7"/>
<line x1="89.8" y1="19.2" x2="89.8" y2="23.2" stroke="#FFB000" stroke-width="1" opacity="0.7"/>
<line x1="89.8" y1="37.2" x2="89.8" y2="41.2" stroke="#FFB000" stroke-width="1" opacity="0.7"/>
<line x1="75.3" y1="26.7" x2="79.3" y2="26.7" stroke="#FFB000" stroke-width="1" opacity="0.7"/>
<line x1="93.3" y1="26.7" x2="97.3" y2="26.7" stroke="#FFB000" stroke-width="1" opacity="0.7"/>
<line x1="75.3" y1="33.7" x2="79.3" y2="33.7" stroke="#FFB000" stroke-width="1" opacity="0.7"/>
<line x1="93.3" y1="33.7" x2="97.3" y2="33.7" stroke="#FFB000" stroke-width="1" opacity="0.7"/>
<rect x="97.3" y="23.2" width="14" height="14" rx="4" fill="#0B0F16" stroke="#FFB000" stroke-width="1.2"/>
<rect x="101.2" y="27.2" width="6.2" height="6.2" rx="2" fill="#FFB000" opacity="0.16"/>
<rect x="101.2" y="27.2" width="6.2" height="6.2" rx="2" fill="none" stroke="#FFB000" stroke-width="0.6" opacity="0.6"/>
<line x1="100.8" y1="19.2" x2="100.8" y2="23.2" stroke="#FFB000" stroke-width="1" opacity="0.7"/>
<line x1="100.8" y1="37.2" x2="100.8" y2="41.2" stroke="#FFB000" stroke-width="1" opacity="0.7"/>
<line x1="107.8" y1="19.2" x2="107.8" y2="23.2" stroke="#FFB000" stroke-width="1" opacity="0.7"/>
<line x1="107.8" y1="37.2" x2="107.8" y2="41.2" stroke="#FFB000" stroke-width="1" opacity="0.7"/>
<line x1="93.3" y1="26.7" x2="97.3" y2="26.7" stroke="#FFB000" stroke-width="1" opacity="0.7"/>
<line x1="111.3" y1="26.7" x2="115.3" y2="26.7" stroke="#FFB000" stroke-width="1" opacity="0.7"/>
<line x1="93.3" y1="33.7" x2="97.3" y2="33.7" stroke="#FFB000" stroke-width="1" opacity="0.7"/>
<line x1="111.3" y1="33.7" x2="115.3" y2="33.7" stroke="#FFB000" stroke-width="1" opacity="0.7"/>
<line x1="0" y1="0" x2="0.0" y2="60.5" stroke="#FFB000" stroke-width="1" opacity="0.4"/>
<rect x="-19.0" y="48.5" width="38" height="24" rx="5" fill="none" stroke="#FFB000" stroke-width="0.6" opacity="0.35" stroke-dasharray="2 2"/>
<rect x="-16.0" y="53.5" width="14" height="14" rx="4" fill="#0B0F16" stroke="#FFB000" stroke-width="1.2"/>
<rect x="-12.1" y="57.4" width="6.2" height="6.2" rx="2" fill="#FFB000" opacity="0.16"/>
<rect x="-12.1" y="57.4" width="6.2" height="6.2" rx="2" fill="none" stroke="#FFB000" stroke-width="0.6" opacity="0.6"/>
<line x1="-12.5" y1="49.5" x2="-12.5" y2="53.5" stroke="#FFB000" stroke-width="1" opacity="0.7"/>
<line x1="-12.5" y1="67.5" x2="-12.5" y2="71.5" stroke="#FFB000" stroke-width="1" opacity="0.7"/>
<line x1="-5.5" y1="49.5" x2="-5.5" y2="53.5" stroke="#FFB000" stroke-width="1" opacity="0.7"/>
<line x1="-5.5" y1="67.5" x2="-5.5" y2="71.5" stroke="#FFB000" stroke-width="1" opacity="0.7"/>
<line x1="-20.0" y1="57.0" x2="-16.0" y2="57.0" stroke="#FFB000" stroke-width="1" opacity="0.7"/>
<line x1="-2.0" y1="57.0" x2="2.0" y2="57.0" stroke="#FFB000" stroke-width="1" opacity="0.7"/>
<line x1="-20.0" y1="64.0" x2="-16.0" y2="64.0" stroke="#FFB000" stroke-width="1" opacity="0.7"/>
<line x1="-2.0" y1="64.0" x2="2.0" y2="64.0" stroke="#FFB000" stroke-width="1" opacity="0.7"/>
<rect x="2.0" y="53.5" width="14" height="14" rx="4" fill="#0B0F16" stroke="#FFB000" stroke-width="1.2"/>
<rect x="5.9" y="57.4" width="6.2" height="6.2" rx="2" fill="#FFB000" opacity="0.16"/>
<rect x="5.9" y="57.4" width="6.2" height="6.2" rx="2" fill="none" stroke="#FFB000" stroke-width="0.6" opacity="0.6"/>
<line x1="5.5" y1="49.5" x2="5.5" y2="53.5" stroke="#FFB000" stroke-width="1" opacity="0.7"/>
<line x1="5.5" y1="67.5" x2="5.5" y2="71.5" stroke="#FFB000" stroke-width="1" opacity="0.7"/>
<line x1="12.5" y1="49.5" x2="12.5" y2="53.5" stroke="#FFB000" stroke-width="1" opacity="0.7"/>
<line x1="12.5" y1="67.5" x2="12.5" y2="71.5" stroke="#FFB000" stroke-width="1" opacity="0.7"/>
<line x1="-2.0" y1="57.0" x2="2.0" y2="57.0" stroke="#FFB000" stroke-width="1" opacity="0.7"/>
<line x1="16.0" y1="57.0" x2="20.0" y2="57.0" stroke="#FFB000" stroke-width="1" opacity="0.7"/>
<line x1="-2.0" y1="64.0" x2="2.0" y2="64.0" stroke="#FFB000" stroke-width="1" opacity="0.7"/>
<line x1="16.0" y1="64.0" x2="20.0" y2="64.0" stroke="#FFB000" stroke-width="1" opacity="0.7"/>
<line x1="0" y1="0" x2="-95.3" y2="30.3" stroke="#FFB000" stroke-width="1" opacity="0.4"/>
<rect x="-114.3" y="18.3" width="38" height="24" rx="5" fill="none" stroke="#FFB000" stroke-width="0.6" opacity="0.35" stroke-dasharray="2 2"/>
<rect x="-111.3" y="23.3" width="14" height="14" rx="4" fill="#0B0F16" stroke="#FFB000" stroke-width="1.2"/>
<rect x="-107.3" y="27.2" width="6.2" height="6.2" rx="2" fill="#FFB000" opacity="0.16"/>
<rect x="-107.3" y="27.2" width="6.2" height="6.2" rx="2" fill="none" stroke="#FFB000" stroke-width="0.6" opacity="0.6"/>
<line x1="-107.8" y1="19.3" x2="-107.8" y2="23.3" stroke="#FFB000" stroke-width="1" opacity="0.7"/>
<line x1="-107.8" y1="37.3" x2="-107.8" y2="41.3" stroke="#FFB000" stroke-width="1" opacity="0.7"/>
<line x1="-100.8" y1="19.3" x2="-100.8" y2="23.3" stroke="#FFB000" stroke-width="1" opacity="0.7"/>
<line x1="-100.8" y1="37.3" x2="-100.8" y2="41.3" stroke="#FFB000" stroke-width="1" opacity="0.7"/>
<line x1="-115.3" y1="26.8" x2="-111.3" y2="26.8" stroke="#FFB000" stroke-width="1" opacity="0.7"/>
<line x1="-97.3" y1="26.8" x2="-93.3" y2="26.8" stroke="#FFB000" stroke-width="1" opacity="0.7"/>
<line x1="-115.3" y1="33.8" x2="-111.3" y2="33.8" stroke="#FFB000" stroke-width="1" opacity="0.7"/>
<line x1="-97.3" y1="33.8" x2="-93.3" y2="33.8" stroke="#FFB000" stroke-width="1" opacity="0.7"/>
<rect x="-93.3" y="23.3" width="14" height="14" rx="4" fill="#0B0F16" stroke="#FFB000" stroke-width="1.2"/>
<rect x="-89.3" y="27.2" width="6.2" height="6.2" rx="2" fill="#FFB000" opacity="0.16"/>
<rect x="-89.3" y="27.2" width="6.2" height="6.2" rx="2" fill="none" stroke="#FFB000" stroke-width="0.6" opacity="0.6"/>
<line x1="-89.8" y1="19.3" x2="-89.8" y2="23.3" stroke="#FFB000" stroke-width="1" opacity="0.7"/>
<line x1="-89.8" y1="37.3" x2="-89.8" y2="41.3" stroke="#FFB000" stroke-width="1" opacity="0.7"/>
<line x1="-82.8" y1="19.3" x2="-82.8" y2="23.3" stroke="#FFB000" stroke-width="1" opacity="0.7"/>
<line x1="-82.8" y1="37.3" x2="-82.8" y2="41.3" stroke="#FFB000" stroke-width="1" opacity="0.7"/>
<line x1="-97.3" y1="26.8" x2="-93.3" y2="26.8" stroke="#FFB000" stroke-width="1" opacity="0.7"/>
<line x1="-79.3" y1="26.8" x2="-75.3" y2="26.8" stroke="#FFB000" stroke-width="1" opacity="0.7"/>
<line x1="-97.3" y1="33.8" x2="-93.3" y2="33.8" stroke="#FFB000" stroke-width="1" opacity="0.7"/>
<line x1="-79.3" y1="33.8" x2="-75.3" y2="33.8" stroke="#FFB000" stroke-width="1" opacity="0.7"/>
<line x1="0" y1="0" x2="-95.3" y2="-30.2" stroke="#FFB000" stroke-width="1" opacity="0.4"/>
<rect x="-114.3" y="-42.2" width="38" height="24" rx="5" fill="none" stroke="#FFB000" stroke-width="0.6" opacity="0.35" stroke-dasharray="2 2"/>
<rect x="-111.3" y="-37.2" width="14" height="14" rx="4" fill="#0B0F16" stroke="#FFB000" stroke-width="1.2"/>
<rect x="-107.3" y="-33.3" width="6.2" height="6.2" rx="2" fill="#FFB000" opacity="0.16"/>
<rect x="-107.3" y="-33.3" width="6.2" height="6.2" rx="2" fill="none" stroke="#FFB000" stroke-width="0.6" opacity="0.6"/>
<line x1="-107.8" y1="-41.2" x2="-107.8" y2="-37.2" stroke="#FFB000" stroke-width="1" opacity="0.7"/>
<line x1="-107.8" y1="-23.2" x2="-107.8" y2="-19.2" stroke="#FFB000" stroke-width="1" opacity="0.7"/>
<line x1="-100.8" y1="-41.2" x2="-100.8" y2="-37.2" stroke="#FFB000" stroke-width="1" opacity="0.7"/>
<line x1="-100.8" y1="-23.2" x2="-100.8" y2="-19.2" stroke="#FFB000" stroke-width="1" opacity="0.7"/>
<line x1="-115.3" y1="-33.7" x2="-111.3" y2="-33.7" stroke="#FFB000" stroke-width="1" opacity="0.7"/>
<line x1="-97.3" y1="-33.7" x2="-93.3" y2="-33.7" stroke="#FFB000" stroke-width="1" opacity="0.7"/>
<line x1="-115.3" y1="-26.7" x2="-111.3" y2="-26.7" stroke="#FFB000" stroke-width="1" opacity="0.7"/>
<line x1="-97.3" y1="-26.7" x2="-93.3" y2="-26.7" stroke="#FFB000" stroke-width="1" opacity="0.7"/>
<rect x="-93.3" y="-37.2" width="14" height="14" rx="4" fill="#0B0F16" stroke="#FFB000" stroke-width="1.2"/>
<rect x="-89.3" y="-33.3" width="6.2" height="6.2" rx="2" fill="#FFB000" opacity="0.16"/>
<rect x="-89.3" y="-33.3" width="6.2" height="6.2" rx="2" fill="none" stroke="#FFB000" stroke-width="0.6" opacity="0.6"/>
<line x1="-89.8" y1="-41.2" x2="-89.8" y2="-37.2" stroke="#FFB000" stroke-width="1" opacity="0.7"/>
<line x1="-89.8" y1="-23.2" x2="-89.8" y2="-19.2" stroke="#FFB000" stroke-width="1" opacity="0.7"/>
<line x1="-82.8" y1="-41.2" x2="-82.8" y2="-37.2" stroke="#FFB000" stroke-width="1" opacity="0.7"/>
<line x1="-82.8" y1="-23.2" x2="-82.8" y2="-19.2" stroke="#FFB000" stroke-width="1" opacity="0.7"/>
<line x1="-97.3" y1="-33.7" x2="-93.3" y2="-33.7" stroke="#FFB000" stroke-width="1" opacity="0.7"/>
<line x1="-79.3" y1="-33.7" x2="-75.3" y2="-33.7" stroke="#FFB000" stroke-width="1" opacity="0.7"/>
<line x1="-97.3" y1="-26.7" x2="-93.3" y2="-26.7" stroke="#FFB000" stroke-width="1" opacity="0.7"/>
<line x1="-79.3" y1="-26.7" x2="-75.3" y2="-26.7" stroke="#FFB000" stroke-width="1" opacity="0.7"/>
</g>
<text x="14" y="258" font-family="monospace" font-size="8.5" letter-spacing="1.5" fill="#FFB000" opacity="0.55">H800 CLUSTER · 6 NODES</text>
</svg>